<?xml version="1.0" encoding="UTF-8" standalone="no"?>
<svg
   xmlns:dc="http://purl.org/dc/elements/1.1/"
   xmlns:cc="http://creativecommons.org/ns#"
   xmlns:rdf="http://www.w3.org/1999/02/22-rdf-syntax-ns#"
   xmlns:svg="http://www.w3.org/2000/svg"
   xmlns="http://www.w3.org/2000/svg"
   xmlns:sodipodi="http://sodipodi.sourceforge.net/DTD/sodipodi-0.dtd"
   xmlns:inkscape="http://www.inkscape.org/namespaces/inkscape"
   viewBox="0 0 48 48"
   id="svg2"
   version="1.1"
   inkscape:version="0.91 r13725"
   sodipodi:docname="notes_1.svg">
  <metadata
     id="metadata97">
    <rdf:RDF>
      <cc:Work
         rdf:about="">
        <dc:format>image/svg+xml</dc:format>
        <dc:type
           rdf:resource="http://purl.org/dc/dcmitype/StillImage" />
        <dc:title></dc:title>
      </cc:Work>
    </rdf:RDF>
  </metadata>
  <sodipodi:namedview
     pagecolor="#ffffff"
     bordercolor="#3861aa"
     borderopacity="1"
     objecttolerance="10"
     gridtolerance="10"
     guidetolerance="10"
     inkscape:pageopacity="0"
     inkscape:pageshadow="2"
     inkscape:window-width="1855"
     inkscape:window-height="1056"
     id="namedview95"
     showgrid="false"
     inkscape:zoom="8"
     inkscape:cx="40.523514"
     inkscape:cy="26.764298"
     inkscape:window-x="65"
     inkscape:window-y="24"
     inkscape:window-maximized="1"
     inkscape:current-layer="svg2" />
  <defs
     id="defs4">
    <linearGradient
       id="linearGradient3764"
       x1="1"
       x2="47"
       gradientUnits="userSpaceOnUse"
       gradientTransform="matrix(0,-1,1,0,-1.5e-6,47.999998)">
      <stop
         stop-color="#3861aa"
         stop-opacity="1"
         id="stop7" />
      <stop
         offset="1"
         stop-color="#3861aa"
         stop-opacity="1"
         id="stop9" />
    </linearGradient>
    <clipPath
       id="clipPath-452468807">
      <g
         transform="translate(0,-1004.3622)"
         id="g12">
        <path
           d="m -24 13 c 0 1.105 -0.672 2 -1.5 2 -0.828 0 -1.5 -0.895 -1.5 -2 0 -1.105 0.672 -2 1.5 -2 0.828 0 1.5 0.895 1.5 2 z"
           transform="matrix(15.333333,0,0,11.5,414.99999,878.8622)"
           fill="#3861aa"
           id="path14" />
      </g>
    </clipPath>
    <clipPath
       id="clipPath-461194074">
      <g
         transform="translate(0,-1004.3622)"
         id="g17">
        <path
           d="m -24 13 c 0 1.105 -0.672 2 -1.5 2 -0.828 0 -1.5 -0.895 -1.5 -2 0 -1.105 0.672 -2 1.5 -2 0.828 0 1.5 0.895 1.5 2 z"
           transform="matrix(15.333333,0,0,11.5,414.99999,878.8622)"
           fill="#3861aa"
           id="path19" />
      </g>
    </clipPath>
  </defs>
  <g
     id="g29"
     style="fill:#3861aa;fill-opacity:1">
    <path
       d="m 24 1 c 12.703 0 23 10.297 23 23 c 0 12.703 -10.297 23 -23 23 -12.703 0 -23 -10.297 -23 -23 0 -12.703 10.297 -23 23 -23 z"
       fill="url(#linearGradient3764)"
       fill-opacity="1"
       id="path31"
       style="fill:#3861aa;fill-opacity:1" />
  </g>
  <g
     id="g33" />
  <g
     id="g65">
    <g
       clip-path="url(#clipPath-461194074)"
       id="g67">
      <!-- color: #3861aa -->
      <g
         id="g69">
        <path
           d="m 14 12 l 20 0 c 1.105 0 2 0.895 2 2 l 0 20 c 0 1.105 -0.895 2 -2 2 l -20 0 c -1.105 0 -2 -0.895 -2 -2 l 0 -20 c 0 -1.105 0.895 -2 2 -2 m 0 0"
           fill="#ffffff"
           stroke="none"
           fill-rule="nonzero"
           fill-opacity="1"
           id="path71" />
        <path
           d="m 14 12 c -1.109 0 -2 0.891 -2 2 l 0 20 c 0 1.109 0.891 2 2 2 l 10 0 l 0 -24 m -10 0"
           fill="#ffffff"
           stroke="none"
           fill-rule="nonzero"
           fill-opacity="1"
           id="path73" />
        <path
           d="m 14 12 c -1.109 0 -2 0.891 -2 2 l 0 20 c 0 1.109 0.891 2 2 2 l 1 0 c -1.109 0 -2 -0.891 -2 -2 l 0 -20 c 0 -1.109 0.891 -2 2 -2 m -1 0"
           fill="#ffffff"
           stroke="none"
           fill-rule="nonzero"
           fill-opacity="1"
           id="path75" />
        <path
           d="m 33 12 c 1.109 0 2 0.891 2 2 l 0 20 c 0 1.109 -0.891 2 -2 2 l 1 0 c 1.109 0 2 -0.891 2 -2 l 0 -20 c 0 -1.109 -0.891 -2 -2 -2 m -1 0"
           fill="#ffffff"
           stroke="none"
           fill-rule="nonzero"
           fill-opacity="1"
           id="path77" />
        <path
           d="m 15 14 l 7 0 l 0 2 l -7 0 m 0 -2"
           fill="#3861aa"
           stroke="none"
           fill-rule="nonzero"
           fill-opacity="0.4"
           id="path79" />
        <path
           d="m 26 32 l 7 0 l 0 2 l -7 0 m 0 -2"
           fill="#3861aa"
           stroke="none"
           fill-rule="nonzero"
           fill-opacity="0.4"
           id="path81" />
        <path
           d="m 15 19 l 18 0 l 0 1 l -18 0 m 0 -1"
           fill="#3861aa"
           stroke="none"
           fill-rule="nonzero"
           fill-opacity="0.4"
           id="path83" />
        <path
           d="m 15 22 l 18 0 l 0 1 l -18 0 m 0 -1"
           fill="#3861aa"
           stroke="none"
           fill-rule="nonzero"
           fill-opacity="0.4"
           id="path85" />
        <path
           d="m 15 25 l 18 0 l 0 1 l -18 0 m 0 -1"
           fill="#3861aa"
           stroke="none"
           fill-rule="nonzero"
           fill-opacity="0.4"
           id="path87" />
        <path
           d="m 15 28 l 18 0 l 0 1 l -18 0 m 0 -1"
           fill="#3861aa"
           stroke="none"
           fill-rule="nonzero"
           fill-opacity="0.4"
           id="path89" />
      </g>
    </g>
  </g>
  <path
     style="fill:#ffffff;fill-opacity:1"
     d="m 14.523559,35.937934 c -0.671098,-0.162456 -1.239828,-0.711443 -1.449529,-1.399209 -0.06308,-0.206877 -0.06578,-0.639058 -0.06578,-10.534692 0,-9.915045 0.0026,-10.32741 0.06611,-10.534693 0.215727,-0.703954 0.753002,-1.225972 1.442548,-1.401584 0.186141,-0.04741 0.822606,-0.05458 4.84488,-0.05458 l 4.630587,0 0,3.487594 0,3.487595 -4.494323,0 -4.494323,0 0,0.521341 0,0.521342 4.494323,0 4.494323,0 0,0.970773 0,0.970774 -4.494323,0 -4.494323,0 0,0.521341 0,0.521342 4.494323,0 4.494323,0 0,0.988751 0,0.988751 -4.494323,0 -4.494323,0 0,0.503364 0,0.503364 4.494323,0 4.494323,0 0,0.988751 0,0.988751 -4.494323,0 -4.494323,0 0,0.521342 0,0.521341 4.494323,0 4.494323,0 0,3.487595 0,3.487594 -4.629153,-0.003 c -3.864284,-0.0025 -4.663936,-0.01142 -4.839668,-0.05396 z m 7.491319,-20.940524 0,-1.006728 -3.505572,0 -3.505572,0 0,1.006728 0,1.006728 3.505572,0 3.505572,0 0,-1.006728 z"
     id="path4225"
     inkscape:connector-curvature="0" />
  <path
     style="fill:#ffffff;fill-opacity:1"
     d="m 33.49224,35.939051 c 0.498901,-0.12095 1.033857,-0.543052 1.27772,-1.008171 0.240383,-0.458484 0.223459,0.369087 0.223459,-10.926847 0,-11.339758 0.01871,-10.4651 -0.234175,-10.946344 -0.234823,-0.446869 -0.654311,-0.799648 -1.136481,-0.955752 l -0.264215,-0.08554 0.450867,-0.0016 c 0.730107,-0.0026 1.155157,0.150506 1.580773,0.569425 0.239359,0.235592 0.368127,0.442456 0.516898,0.830387 l 0.07615,0.198559 0.0094,10.256292 c 0.01044,11.373558 0.02815,10.520251 -0.229177,11.043009 -0.246617,0.500996 -0.779441,0.911962 -1.335014,1.029693 -0.141852,0.03006 -0.429979,0.0505 -0.692387,0.04911 l -0.449432,-0.0024 0.205601,-0.04984 0,2e-6 z"
     id="path4227"
     inkscape:connector-curvature="0" />
  <path
     style="fill:#ffffff;fill-opacity:1"
     d="m 13.00038,16.448441 c 9e-6,-1.639957 0.0014,-2.530434 0.0039,-2.571289 0.0049,-0.0772 0.01626,-0.171522 0.02921,-0.241632 0.01277,-0.06912 0.02233,-0.112377 0.02438,-0.110321 9.04e-4,9.04e-4 -0.0011,0.02333 -0.0044,0.04984 -0.01826,0.146151 -0.02665,0.439808 -0.03375,1.181014 -0.0041,0.424889 -0.01134,2.75499 -0.01152,3.688477 -6.3e-5,0.339128 -0.0014,0.512695 -0.004,0.512695 -0.0026,0 -0.0039,-0.838858 -0.0039,-2.508789 z"
     id="path4229"
     inkscape:connector-curvature="0" />
  <path
     style="fill:#ffffff;fill-opacity:1"
     d="m 13.001043,21.706253 c 3.73e-4,-1.581787 0.0019,-2.851367 0.0034,-2.821289 0.0045,0.08957 0.0043,5.697266 -2.01e-4,5.697266 -0.0026,0 -0.0037,-0.960811 -0.0032,-2.875977 z"
     id="path4231"
     inkscape:connector-curvature="0" />
  <path
     style="fill:#3861aa;fill-opacity:1"
     d="m 15.037193,14.990227 0,-0.96875 3.46875,0 3.46875,0 0,0.96875 0,0.96875 -3.46875,0 -3.46875,0 0,-0.96875 z"
     id="path4233"
     inkscape:connector-curvature="0" />
  <path
     style="fill:#3861aa;fill-opacity:1"
     d="m 15.037193,19.490227 0,-0.46875 4.5,0 4.5,0 0,0.46875 0,0.46875 -4.5,0 -4.5,0 0,-0.46875 z"
     id="path4235"
     inkscape:connector-curvature="0" />
  <path
     style="fill:#3861aa;fill-opacity:1"
     d="m 24.037193,19.490227 0,-0.46875 4.46875,0 4.46875,0 0,0.46875 0,0.46875 -4.46875,0 -4.46875,0 0,-0.46875 z"
     id="path4237"
     inkscape:connector-curvature="0" />
  <path
     style="fill:#3861aa;fill-opacity:1"
     d="m 23.974693,22.490227 0,-0.46875 4.5,0 4.5,0 0,0.46875 0,0.46875 -4.5,0 -4.5,0 0,-0.46875 z"
     id="path4239"
     inkscape:connector-curvature="0" />
  <path
     style="fill:#3861aa;fill-opacity:1"
     d="m 15.037193,22.490227 0,-0.46875 4.46875,0 4.46875,0 0,0.46875 0,0.46875 -4.46875,0 -4.46875,0 0,-0.46875 z"
     id="path4241"
     inkscape:connector-curvature="0" />
  <path
     style="fill:#3861aa;fill-opacity:1"
     d="m 15.037193,25.490227 0,-0.46875 4.5,0 4.5,0 0,0.46875 0,0.46875 -4.5,0 -4.5,0 0,-0.46875 z"
     id="path4243"
     inkscape:connector-curvature="0" />
  <path
     style="fill:#3861aa;fill-opacity:1"
     d="m 24.037193,25.490227 0,-0.46875 4.46875,0 4.46875,0 0,0.46875 0,0.46875 -4.46875,0 -4.46875,0 0,-0.46875 z"
     id="path4245"
     inkscape:connector-curvature="0" />
  <path
     style="fill:#3861aa;fill-opacity:1"
     d="m 23.974693,28.490227 0,-0.46875 4.5,0 4.5,0 0,0.46875 0,0.46875 -4.5,0 -4.5,0 0,-0.46875 z"
     id="path4247"
     inkscape:connector-curvature="0" />
  <path
     style="fill:#3861aa;fill-opacity:1"
     d="m 15.037193,28.490227 0,-0.46875 4.46875,0 4.46875,0 0,0.46875 0,0.46875 -4.46875,0 -4.46875,0 0,-0.46875 z"
     id="path4249"
     inkscape:connector-curvature="0" />
  <path
     style="fill:#3861aa;fill-opacity:1"
     d="m 26.037193,32.990227 0,-0.96875 3.46875,0 3.46875,0 0,0.96875 0,0.96875 -3.46875,0 -3.46875,0 0,-0.96875 z"
     id="path4251"
     inkscape:connector-curvature="0" />
  <path
     style="fill:#3861aa;fill-opacity:1"
     d="m 16.754324,15.997911 c 0.963925,-0.0011 2.538925,-0.0011 3.5,0 0.961075,0.0011 0.172409,0.002 -1.752591,0.002 -1.925,0 -2.711334,-8.94e-4 -1.747409,-0.002 z"
     id="path4253"
     inkscape:connector-curvature="0" />
  <path
     style="fill:#3861aa;fill-opacity:1"
     d="m 15.005639,14.999864 0,-0.996094 3.496094,0 3.496093,0 0,0.996094 0,0.996093 -3.496093,0 -3.496094,0 0,-0.996093 z m 6.96875,-0.0078 0,-0.972656 -3.46875,0 -3.46875,0 0,0.972656 0,0.972656 3.46875,0 3.46875,0 0,-0.972656 z"
     id="path4255"
     inkscape:connector-curvature="0" />
</svg>
